# xmcd
#
# Track frame offsets:
# 150
# 13355
# 24130
# 35885
# 46542
# 57985
# 69987
# 81080
# 92952
# 105975
# 116777
# 129582
#
# Disc length: 1884 seconds
#
#
# Revision: 0
# Processed by: cddbd v1.5.1PL2 Copyright (c) Steve Scherf et al.
# Submitted via: FreeRIP 2.942 
#
DISCID=98075a0c
DTITLE=Louvin Brothers - The Family Who Prays
DYEAR=1900
DGENRE=Gospel
TTITLE0=The Family Who Prays
TTITLE1=Born Again
TTITLE2=If We Forget God
TTITLE3=Satan Lied to Me
TTITLE4=God Bless Her ('Cause She's My Mother)
TTITLE5=Love Thy Neighbor As Thyself
TTITLE6=Preach the Gospel
TTITLE7=Just Rehearsing
TTITLE8=Pray For Me
TTITLE9=Satan and the Saint
TTITLE10=Swing Low, Sweet Chariot
TTITLE11=Make Him a Soldier
EXTD=
EXTT0=
EXTT1=
EXTT2=
EXTT3=
EXTT4=
EXTT5=
EXTT6=
EXTT7=
EXTT8=
EXTT9=
EXTT10=
EXTT11=
PLAYORDER=
